<?xml version="1.0" encoding="UTF-8" standalone="no"?>
<svg
   xmlns:dc="http://purl.org/dc/elements/1.1/"
   xmlns:cc="http://creativecommons.org/ns#"
   xmlns:rdf="http://www.w3.org/1999/02/22-rdf-syntax-ns#"
   xmlns:svg="http://www.w3.org/2000/svg"
   xmlns="http://www.w3.org/2000/svg"
   xmlns:sodipodi="http://sodipodi.sourceforge.net/DTD/sodipodi-0.dtd"
   xmlns:inkscape="http://www.inkscape.org/namespaces/inkscape"
   height="30"
   viewBox="-50 0 150 170"
   version="1.1"
   id="svg3"
   sodipodi:docname="logo2.svg"
   width="150"
   inkscape:version="0.92.4 (5da689c313, 2019-01-14)">
  <metadata
     id="metadata9">
    <rdf:RDF>
      <cc:Work
         rdf:about="">
        <dc:format>image/svg+xml</dc:format>
        <dc:type
           rdf:resource="http://purl.org/dc/dcmitype/StillImage" />
        <dc:title></dc:title>
      </cc:Work>
    </rdf:RDF>
  </metadata>
  <defs
     id="defs7" />
  <sodipodi:namedview
     pagecolor="#ffffff"
     bordercolor="#666666"
     borderopacity="1"
     objecttolerance="10"
     gridtolerance="10"
     guidetolerance="10"
     inkscape:pageopacity="0"
     inkscape:pageshadow="2"
     inkscape:window-width="1920"
     inkscape:window-height="1001"
     id="namedview5"
     showgrid="false"
     inkscape:zoom="1.9176736"
     inkscape:cx="73.09651"
     inkscape:cy="15"
     inkscape:window-x="-9"
     inkscape:window-y="-9"
     inkscape:window-maximized="1"
     inkscape:current-layer="svg3" />
  <path
     d="m -56.154243,9.2 c -1.736,1.736 -1.736,137.864 0,139.6 1.944,1.944 24.229002,1.629 26.229002,-0.371 2.392,-2.393 2.392,-136.465 0,-138.858 -2,-2 -24.285002,-2.315 -26.229002,-0.371"
     id="path4759"
     inkscape:connector-curvature="0" />
  <g
     id="g4792">
    <path
       inkscape:connector-curvature="0"
       id="path4757"
       d="m -272.99994,9.544 c 0,1.884 4.301,6.811 37.47993,42.936 12.638,13.761 25.013,27.256 27.5,29.989 14.461,15.896 13.63,15.578 20.48,7.834 2.772,-3.134 9.09,-9.996 14.04,-15.251 8.832,-9.375 35.36103,-38.297 50.84502,-55.432 4.909,-5.432 7.634,-9.231 7.282,-10.151 -1.318,-3.434 -32.55499,-1.301 -32.64799,2.23 -0.012,0.441 -2.75703,3.726 -6.10003,7.301 -3.343,3.575 -10.421,11.356 -15.729,17.292 -5.307,5.936 -12.906,14.261 -16.885,18.5 l -7.235,7.708 -7.765,-8.055 c -4.271,-4.431 -12.142,-12.981 -17.491,-19 -5.35,-6.02 -13.09,-14.545 -17.202,-18.945 l -7.475,-8 -14.549,-0.324 c -13.12393,-0.292 -14.54793,-0.158 -14.54793,1.368" />
    <path
       inkscape:connector-curvature="0"
       id="path4755"
       d="m -274.99994,82.8 c 0,49.067 0.291,65.091 1.2,66 1.65,1.65 22.94993,1.65 24.59993,0 0.902,-0.902 1.2,-13.92 1.2,-52.439 V 45.122 l -4.161,-4.811 C -262.59701,28.243 -272.47794,18 -273.68194,18 c -1.077,0 -1.318,11.831 -1.318,64.8" />
    <path
       inkscape:connector-curvature="0"
       id="path4753"
       d="m -125.09599,28.158 c -5.155,5.586 -10.61799,11.723 -12.13899,13.637 l -2.765,3.48 v 51.163 c 0,38.459 0.298,51.46 1.2,52.362 1.508,1.508 21.10399,1.643 23.86599,0.165 2.536,-1.357 3.102,-130.965 0.572,-130.965 -0.748,0 -5.579,4.571 -10.734,10.158" />
  </g>
  <g
     id="g4787"
     transform="translate(-12.767175)">
    <path
       sodipodi:nodetypes="cccccsccc"
       inkscape:connector-curvature="0"
       d="m 70.873391,115.02303 c 2.772,-3.134 34.009979,-34.71603 38.959979,-39.97103 8.832,-9.375 35.361,-38.297 50.845,-55.432 4.909,-5.432 7.634,-9.231 7.282,-10.151 -1.318,-3.434 -32.555,-1.301 -32.648,2.23 -0.012,0.441 -2.757,3.726 -6.1,7.301 -3.343,3.575 -10.421,11.356 -15.729,17.292 -5.307,5.936 -12.906,14.261 -16.885003,18.5 L 69.513301,83.394789"
       id="path4763" />
    <path
       inkscape:connector-curvature="0"
       d="m 158.23737,28.158 c -5.155,5.586 -10.618,11.723 -12.139,13.637 l -2.765,3.48 v 51.163 c 0,38.459 0.298,51.46 1.2,52.362 1.508,1.508 21.104,1.643 23.866,0.165 2.536,-1.357 3.102,-130.965 0.572,-130.965 -0.748,0 -5.579,4.571 -10.734,10.158"
       id="path4765" />
    <path
       style="stroke-width:1.06142843"
       id="path4767"
       d="m 52.275675,141.69498 c 5.155003,-6.29336 10.618003,-13.20748 12.139003,-15.36386 l 2.765003,-3.92067 V 64.768669 c 0,-43.329072 -0.298,-57.9763906 -1.200003,-58.9926111 -1.508,-1.6989584 -21.104003,-1.8510534 -23.866007,-0.185894 -2.536,1.5288372 -3.102,147.5491261 -0.572,147.5491261 0.748,0 5.579004,-5.14983 10.734004,-11.44431"
       inkscape:connector-curvature="0" />
  </g>
  <path
     style="fill:#000000;stroke-width:0.20017217"
     d="M 113.33203 0.23046875 C 112.23132 0.24425966 111.13621 0.33706497 110.12695 0.54296875 C 112.31442 2.7214411 117.40148 4.1451626 118.96094 5.0585938 C 122.90598 6.9287038 125.33389 10.032132 125.79492 13.144531 L 130.19141 13.144531 C 129.56602 6.7489584 126.28699 3.9088095 121.31055 1.3925781 C 119.99609 0.86686559 116.63417 0.18909601 113.33203 0.23046875 z M 125.87305 13.925781 C 126.02997 17.729814 123.17239 21.393065 116.46094 22.664062 L 112.89844 22.988281 L 109.14453 26.841797 L 116.33984 26.748047 C 122.89211 26.188734 129.1841 21.058474 130.30078 15.371094 C 130.29855 14.870936 130.28436 14.389324 130.25586 13.925781 L 125.87305 13.925781 z M 130.30078 15.371094 C 130.30117 15.457246 130.30705 15.53577 130.30664 15.623047 L 130.30664 15.347656 C 130.30512 15.35552 130.30232 15.363232 130.30078 15.371094 z "
     transform="matrix(5.6666667,0,0,5.6666667,-400,0)"
     id="path4761" />
  <path
     style="fill:#000000"
     sodipodi:nodetypes="cccccsccc"
     inkscape:connector-curvature="0"
     d="m 214.75882,148.99843 c 0.0844,-4.18316 -1.4956,-48.57618 -1.57627,-55.794974 -0.14473,-12.879204 -0.0632,-52.125393 0.15659,-75.218987 0.0694,-7.321208 0.63887,-11.9616542 1.52107,-12.3998662 3.29593,-1.632881 25.87137,15.8750902 23.54756,18.5352572 -0.28995,0.332499 -1.54121,9.832129 -1.50436,14.726504 0.0369,4.894376 -0.0286,15.412825 -0.146,23.37506 -0.11813,7.961557 -0.16893,19.233107 -0.11414,25.04676 l 0.54378,39.388136"
     id="path4778" />
</svg>
